<?xml version="1.0" standalone="no"?><!DOCTYPE svg PUBLIC "-//W3C//DTD SVG 1.1//EN" "http://www.w3.org/Graphics/SVG/1.1/DTD/svg11.dtd"><svg t="1574481494768" class="icon" viewBox="0 0 1024 1024" version="1.1" xmlns="http://www.w3.org/2000/svg" p-id="13894" xmlns:xlink="http://www.w3.org/1999/xlink" width="200" height="200"><defs><style type="text/css"></style></defs><path d="M739.556 568.889h170.666V512H739.556V392.533c68.266-17.066 142.222-68.266 142.222-193.422h-56.89c0 136.533-125.155 142.222-142.221 142.222H284.444c-5.688 0-142.222 0-142.222-142.222H85.333c0 119.467 73.956 170.667 142.223 193.422V512H56.889v56.889h170.667v85.333c0 34.134 5.688 62.578 17.066 91.022-68.266 11.378-159.289 62.578-159.289 193.423h56.89c0-119.467 91.021-136.534 130.844-142.223 45.51 68.267 125.155 113.778 210.489 113.778 91.022 0 164.977-45.51 210.488-113.778 34.134 5.69 130.845 22.756 130.845 142.223h56.889c0-130.845-91.022-182.045-159.29-193.423 11.379-28.444 17.068-56.888 17.068-91.022V568.89z m-256 284.444c-108.09 0-199.112-91.022-199.112-199.11v-256h170.667v341.333H512V398.222h170.667v256c0 108.09-91.023 199.111-199.111 199.111z" p-id="13895"></path><path d="M483.556 85.333c-108.09 0-199.112 91.023-199.112 199.111h398.223c0-108.088-91.023-199.11-199.111-199.11zM352.71 227.556c22.756-51.2 73.956-85.334 130.845-85.334s108.088 34.134 130.844 85.334H352.711z" p-id="13896"></path></svg>