<?xml version="1.0" standalone="no"?><!DOCTYPE svg PUBLIC "-//W3C//DTD SVG 1.1//EN" "http://www.w3.org/Graphics/SVG/1.1/DTD/svg11.dtd"><svg t="1574412942415" class="icon" viewBox="0 0 1024 1024" version="1.1" xmlns="http://www.w3.org/2000/svg" p-id="2820" xmlns:xlink="http://www.w3.org/1999/xlink" width="200" height="200"><defs><style type="text/css"></style></defs><path d="M842.3 852h-673V183.5c0-8.3 6.7-15 15-15s15 6.7 15 15V822h643c8.3 0 15 6.7 15 15s-6.7 15-15 15z" p-id="2821"></path><path d="M321.4 729.8L176 586.5c-5.9-5.8-6-15.3-0.2-21.2 5.8-5.9 15.3-6 21.2-0.2L316.7 683l129-193.2 132.8 127.8L766 306.3c4.3-7.1 13.5-9.4 20.6-5.1 7.1 4.3 9.4 13.5 5.1 20.6L584.8 665.3l-134.1-129-129.3 193.5z" p-id="2822"></path><path d="M808.7 436.9c-7.2 0-13.6-5.2-14.8-12.5l-18.6-111.9L663.4 331c-8.2 1.4-15.9-4.2-17.3-12.3-1.4-8.2 4.2-15.9 12.3-17.3L800 277.9l23.5 141.5c1.4 8.2-4.2 15.9-12.3 17.3-0.9 0.1-1.7 0.2-2.5 0.2z" p-id="2823"></path></svg>