<svg class="icon" viewBox="0 0 1024 1024" xmlns="http://www.w3.org/2000/svg" width="200" height="200"><defs><style/></defs><path d="M938.495 156.892H85.505c-10.068 0-17.39-8.237-17.39-17.39s8.237-17.388 17.39-17.388H937.58c10.068 0 17.39 8.237 17.39 17.389s-7.322 17.39-16.475 17.39zM688.64 902.802H335.36c-10.067 0-17.389-8.237-17.389-17.39 0-10.067 8.237-17.389 17.39-17.389h352.361c10.068 0 17.39 8.237 17.39 17.39.915 9.152-7.322 17.389-16.474 17.389z"/><path d="M873.514 652.03H150.486c-10.068 0-17.39-8.237-17.39-17.39V139.503c0-10.068 8.237-17.39 17.39-17.39 10.067 0 17.389 8.238 17.389 17.39v476.833h686.42V391.19c0-10.067 8.237-17.39 17.389-17.39 10.067 0 17.39 8.238 17.39 17.39v243.45c1.83 9.153-6.407 17.39-15.56 17.39zm0-340.465c-10.067 0-17.389-8.237-17.389-17.389v-47.592c0-10.067 8.237-17.389 17.39-17.389 10.067 0 17.389 8.237 17.389 17.39v47.591c0 9.152-8.237 17.39-17.39 17.39zM512 902.802c-10.067 0-17.39-8.237-17.39-17.39V727.078c0-10.067 8.238-17.39 17.39-17.39 10.067 0 17.39 8.238 17.39 17.39v158.334c0 9.153-7.323 17.39-17.39 17.39z"/><path d="M825.007 220.958H150.486c-10.068 0-17.39-8.237-17.39-17.39 0-10.067 8.237-17.389 17.39-17.389h673.606c10.068 0 17.39 8.237 17.39 17.39.915 10.067-7.322 17.389-16.475 17.389z"/></svg>