<?xml version="1.0" standalone="no"?><!DOCTYPE svg PUBLIC "-//W3C//DTD SVG 1.1//EN" "http://www.w3.org/Graphics/SVG/1.1/DTD/svg11.dtd"><svg t="1574493802840" class="icon" viewBox="0 0 1024 1024" version="1.1" xmlns="http://www.w3.org/2000/svg" p-id="83318" xmlns:xlink="http://www.w3.org/1999/xlink" width="200" height="200"><defs><style type="text/css"></style></defs><path d="M605.090909 186.181818c0 0 46.545455 3.304727 46.545455-45.335273 0-48.64-46.545455-47.383273-46.545455-47.383273S606.813091 0 512 0 418.909091 93.463273 418.909091 93.463273 372.363636 95.464727 372.363636 140.846545C372.363636 186.181818 418.909091 186.181818 418.909091 186.181818L605.090909 186.181818zM512 46.545455c25.693091 0 46.545455 20.852364 46.545455 46.545455S537.693091 139.636364 512 139.636364C486.306909 139.636364 465.454545 118.784 465.454545 93.090909S486.306909 46.545455 512 46.545455z" p-id="83319"></path><path d="M241.664 138.286545l82.850909 0L324.514909 93.090909l-82.850909 0C241.664 93.090909 139.636364 93.090909 139.636364 194.280727c0 292.910545 0 728.529455 0 728.529455C139.636364 1024 241.664 1024 241.664 1024l540.672 0c0 0 102.027636 0 102.027636-101.189818L884.363636 194.280727C884.363636 93.090909 782.336 93.090909 782.336 93.090909l-82.804364 0 0 45.195636 82.804364 0c0 0 57.344 5.399273 57.344 55.994182l0 728.529455c0 55.808-57.344 57.204364-57.344 57.204364L241.664 980.014545c0 0-56.738909-6.609455-56.738909-57.204364L184.925091 194.280727C184.878545 143.685818 241.664 138.286545 241.664 138.286545z" p-id="83320"></path></svg>