<?xml version="1.0" standalone="no"?><!DOCTYPE svg PUBLIC "-//W3C//DTD SVG 1.1//EN" "http://www.w3.org/Graphics/SVG/1.1/DTD/svg11.dtd"><svg t="1574411405028" class="icon" viewBox="0 0 1024 1024" version="1.1" xmlns="http://www.w3.org/2000/svg" p-id="3412" xmlns:xlink="http://www.w3.org/1999/xlink" width="200" height="200"><defs><style type="text/css"></style></defs><path d="M384 192c23.466667 0 42.666667 19.2 42.666667 42.666667v149.333333c0 23.466667-19.2 42.666667-42.666667 42.666667h-149.333333c-23.466667 0-42.666667-19.2-42.666667-42.666667v-149.333333c0-23.466667 19.2-42.666667 42.666667-42.666667h149.333333m0-42.666667h-149.333333c-46.933333 0-85.333333 38.4-85.333334 85.333334v149.333333c0 46.933333 38.4 85.333333 85.333334 85.333333h149.333333c46.933333 0 85.333333-38.4 85.333333-85.333333v-149.333333c0-46.933333-38.4-85.333333-85.333333-85.333334zM714.666667 174.933333c10.666667 0 21.333333 4.266667 29.866666 12.8l91.733334 91.733334c17.066667 17.066667 17.066667 42.666667 0 59.733333l-91.733334 91.733333c-8.533333 8.533333-19.2 12.8-29.866666 12.8s-21.333333-4.266667-29.866667-12.8l-91.733333-91.733333c-17.066667-17.066667-17.066667-42.666667 0-59.733333l91.733333-91.733334c8.533333-8.533333 19.2-12.8 29.866667-12.8m0-42.666666c-21.333333 0-44.8 8.533333-59.733334 25.6l-91.733333 91.733333c-34.133333 34.133333-34.133333 87.466667 0 121.6l91.733333 91.733333c17.066667 17.066667 38.4 25.6 59.733334 25.6s44.8-8.533333 59.733333-25.6l91.733333-91.733333c34.133333-34.133333 34.133333-87.466667 0-121.6l-91.733333-91.733333c-14.933333-17.066667-38.4-25.6-59.733333-25.6zM384 597.333333c23.466667 0 42.666667 19.2 42.666667 42.666667v149.333333c0 23.466667-19.2 42.666667-42.666667 42.666667h-149.333333c-23.466667 0-42.666667-19.2-42.666667-42.666667v-149.333333c0-23.466667 19.2-42.666667 42.666667-42.666667h149.333333m0-42.666666h-149.333333c-46.933333 0-85.333333 38.4-85.333334 85.333333v149.333333c0 46.933333 38.4 85.333333 85.333334 85.333334h149.333333c46.933333 0 85.333333-38.4 85.333333-85.333334v-149.333333c0-46.933333-38.4-85.333333-85.333333-85.333333zM789.333333 597.333333c23.466667 0 42.666667 19.2 42.666667 42.666667v149.333333c0 23.466667-19.2 42.666667-42.666667 42.666667h-149.333333c-23.466667 0-42.666667-19.2-42.666667-42.666667v-149.333333c0-23.466667 19.2-42.666667 42.666667-42.666667h149.333333m0-42.666666h-149.333333c-46.933333 0-85.333333 38.4-85.333333 85.333333v149.333333c0 46.933333 38.4 85.333333 85.333333 85.333334h149.333333c46.933333 0 85.333333-38.4 85.333334-85.333334v-149.333333c0-46.933333-38.4-85.333333-85.333334-85.333333z" p-id="3413"></path></svg>