<svg class="icon" viewBox="0 0 1024 1024" xmlns="http://www.w3.org/2000/svg" width="200" height="200"><defs><style/></defs><path d="M823.817 593.92c23.74 0 41.079 10.317 56.234 33.468a21.333 21.333 0 0 0 39.185-11.682v-145.34a21.333 21.333 0 0 0-21.333-21.333H777.395c13.466-21.897 20.258-44.775 20.267-68.387-.009-53.947-35.123-101.128-82.535-118.348a21.29 21.29 0 0 0-17.757-9.532H558.473c9.31-15.83 15.692-33.579 15.7-54.622-.008-59.392-48.742-109.568-106.418-109.568-28.502 0-55.441 12.075-75.862 33.988-19.481 20.924-30.66 49.007-30.651 77.048 0 20.719 5.905 37.632 15.112 53.154H274.97a21.333 21.333 0 0 0-21.334 21.333v76.74c-12.1-6.46-26.718-10.811-44.416-10.811-58.564 0-104.448 46.805-104.448 106.555 0 59.768 45.415 106.599 103.399 106.599 16.495 0 31.582-3.687 45.465-11.136v137.387c0 1.715.256 3.37.64 4.983 5.538 62.652 55.936 110.217 119.33 110.217 23.996 0 42.846-7.117 59.222-17.87V914.1a21.333 21.333 0 0 0 21.333 21.334h443.733a21.333 21.333 0 0 0 21.334-21.334V730.18a21.333 21.333 0 0 0-39.177-11.69c-15.172 23.15-32.529 33.467-56.252 33.467a78.55 78.55 0 0 1-55.91-23.15 78.49 78.49 0 0 1-23.142-55.885c.008-43.555 35.481-79.002 79.07-79.002zM208.17 510.515c-34.629 0-60.732-27.486-60.732-63.923 0-35.831 27.144-63.89 61.781-63.89 19.175 0 33.331 8.21 48.862 28.332a21.316 21.316 0 1 0 38.22-13.03V295.432h122.864a21.316 21.316 0 0 0 16.136-35.277c-21.708-25.13-31.394-39.834-31.394-60.544 0-17.374 6.998-34.859 19.209-47.966 12.262-13.159 28.109-20.412 44.63-20.412 34.55 0 63.743 30.643 63.752 66.901-.009 21.376-10.701 37.658-31.753 62.004a21.333 21.333 0 0 0 16.137 35.285h72.635c-21.623 23.86-34.04 55.467-34.03 87.023 0 23.21 6.476 45.244 19.66 66.577H454.17a21.333 21.333 0 0 0-21.334 21.333v98.535c-16.264-10.76-34.747-17.647-58.632-17.647-29.696 0-56.875 10.957-77.901 29.013v-85.043a21.333 21.333 0 0 0-38.22-13.03c-15.122 19.592-30.516 28.33-49.912 28.33zM737.732 758.98a120.892 120.892 0 0 0 86.076 35.653c19.49 0 37.12-4.651 52.762-13.901v112.034H475.503V730.18a21.325 21.325 0 0 0-36.548-14.95c-24.969 25.404-40.337 36.736-65.34 36.736-43.298 0-77.218-34.714-77.218-79.036s34.176-79.019 77.807-79.019c24.687 0 39.296 10.83 64.75 36.736a21.3 21.3 0 0 0 23.288 4.796 21.35 21.35 0 0 0 13.26-19.746V491.7h143.412a21.316 21.316 0 0 0 14.942-36.548c-25.037-24.602-36.693-47.701-36.693-72.704-.009-21.427 8.61-43 23.646-59.187 15.163-16.333 34.807-25.327 55.296-25.327 42.752 0 78.865 37.88 78.873 82.713-.008 25.242-12.501 50.313-37.128 74.505a21.316 21.316 0 0 0 14.941 36.548h143.753v73.447c-15.633-9.242-33.246-13.893-52.753-13.893-67.115 0-121.728 54.58-121.728 121.686a120.969 120.969 0 0 0 35.67 86.041z"/></svg>