<svg class="icon" viewBox="0 0 1024 1024" xmlns="http://www.w3.org/2000/svg" width="200" height="200"><defs><style/></defs><path d="M1014.016 488.494L519.936 34.5c-10.378-9.55-25.856-10.015-36.193 0L15.263 488.494c-23.747 23.014 12.493 59.192 36.203 36.219l450.852-436.94 475.494 436.94c24.264 22.287 60.565-13.83 36.204-36.219z"/><path d="M836.864 530.1v376.703c0 9.846 4.577 35.446-11.11 35.446H200.489c-15.944 0-12.18-19.712-12.18-30.403V530.104c0-33.019-51.2-33.019-51.2 0v376.704c0 23.06-2.018 48.456 15.928 66.402 17.48 17.474 37.545 20.244 60.447 20.244h596.459c20.526 0 42.03-.087 57.877-15.923 19.932-19.937 20.244-42.501 20.244-68.137v-379.29c0-33.024-51.2-33.024-51.2-.005zM719.683 117.488h145.669v141.655c0 33.019 51.2 33.019 51.2 0V91.889c0-13.957-11.643-25.6-25.6-25.6h-171.27c-33.018 0-33.018 51.2 0 51.2z"/></svg>