<?xml version="1.0" standalone="no"?><!DOCTYPE svg PUBLIC "-//W3C//DTD SVG 1.1//EN" "http://www.w3.org/Graphics/SVG/1.1/DTD/svg11.dtd"><svg t="1574317143126" class="icon" viewBox="0 0 1024 1024" version="1.1" xmlns="http://www.w3.org/2000/svg" p-id="5951" xmlns:xlink="http://www.w3.org/1999/xlink" width="200" height="200"><defs><style type="text/css"></style></defs><path d="M1014.016 488.49408l-494.08-453.99552c-10.37824-9.5488-25.856-10.01472-36.19328 0l-468.48 453.99552c-23.74656 23.0144 12.4928 59.19232 36.20352 36.21888l450.85184-436.9408 475.4944 436.9408c24.26368 22.28736 60.56448-13.82912 36.20352-36.21888z" p-id="5952"></path><path d="M836.864 530.0992v376.704c0 9.84576 4.57728 35.44576-11.1104 35.44576H200.48896c-15.94368 0-12.18048-19.712-12.18048-30.40256v-91.67872-236.5696-53.49376c0-33.01888-51.2-33.01888-51.2 0v376.704c0 23.06048-2.01728 48.45568 15.92832 66.40128 17.47968 17.47456 37.54496 20.24448 60.44672 20.24448H809.94304c20.52608 0 42.03008-0.08704 57.87648-15.9232 19.93216-19.93728 20.24448-42.50112 20.24448-68.13696v-218.9568-160.3328c0-33.024-51.2-33.024-51.2-0.00512zM719.68256 117.48864h145.66912v141.65504c0 33.01888 51.2 33.01888 51.2 0V91.88864c0-13.95712-11.64288-25.6-25.6-25.6h-171.26912c-33.01888 0-33.01888 51.2 0 51.2z" p-id="5953"></path></svg>