<?xml version="1.0" standalone="no"?><!DOCTYPE svg PUBLIC "-//W3C//DTD SVG 1.1//EN" "http://www.w3.org/Graphics/SVG/1.1/DTD/svg11.dtd"><svg t="1574495416527" class="icon" viewBox="0 0 1024 1024" version="1.1" xmlns="http://www.w3.org/2000/svg" p-id="97987" xmlns:xlink="http://www.w3.org/1999/xlink" width="200" height="200"><defs><style type="text/css"></style></defs><path d="M0 1024V0h1024v1024zM972.8 51.2H51.2v921.6h921.6z" p-id="97988"></path><path d="M384 724.224a1096.3968 1096.3968 0 0 1-217.3952 73.216l-5.632-39.68C245.76 739.584 320.5632 715.4688 384 685.4144zM318.3616 185.4976q-54.9376 151.552-109.824 237.1584a1010.5344 1010.5344 0 0 0 106.8544-24.1664l39.5264-83.456 36.608 13.1584q-98.816 202.0352-161.7408 280.32a1011.1488 1011.1488 0 0 0 155.904-49.0496v35.84A1024 1024 0 0 1 184.32 650.24l-10.24-36.608a51.6096 51.6096 0 0 0 17.5616-10.9568c29.2864-33.6896 63.6928-89.2928 104.6528-166.8608-42.4448 10.24-83.456 18.2784-124.416 25.6l-9.5232-35.1232a37.9392 37.9392 0 0 0 16.128-14.6432c39.5264-68.0448 73.9328-148.48 103.2192-240.64z m191.0272 430.3872a643.7888 643.7888 0 0 1-88.576 197.632l-33.6896-21.9648a574.6688 574.6688 0 0 0 84.9408-182.9888z m2.2016 212.2752l-8.0384-37.3248c21.9648 1.4848 42.4448 2.9184 61.44 2.9184 17.5616 0 27.0848-12.4416 27.0848-36.608v-211.5072h-174.08v-38.0416h373.2992v38.0416h-160.4096v221.0304q0 61.44-52.6848 61.44z m275.968-447.9488h-38.0416v-92.16H459.6224v92.16h-38.0928V250.88h163.2256a623.0528 623.0528 0 0 0-42.4448-82.688l40.2432-7.3216A743.9872 743.9872 0 0 1 624.2816 250.88h163.2256z m-51.2-2.2016v37.3248H474.2656v-37.3248z m79.7696 413.5424l-35.84 16.0768a1313.4336 1313.4336 0 0 0-86.3744-194.56l35.1232-11.7248a1409.7408 1409.7408 0 0 1 87.04 190.208z" p-id="97989"></path></svg>