<?xml version="1.0" standalone="no"?><!DOCTYPE svg PUBLIC "-//W3C//DTD SVG 1.1//EN" "http://www.w3.org/Graphics/SVG/1.1/DTD/svg11.dtd"><svg t="1574495046802" class="icon" viewBox="0 0 1026 1024" version="1.1" xmlns="http://www.w3.org/2000/svg" p-id="94116" xmlns:xlink="http://www.w3.org/1999/xlink" width="200.390625" height="200"><defs><style type="text/css"></style></defs><path d="M383.732159 346.492787l-0.671373-230.792713c-0.287732-12.915952-10.997741-20.588795-23.913693-20.908497l-16.400702-0.03197c-12.947922-0.287732-23.178379 10.965771-22.890647 23.881723l0.895165 155.087332L54.727059 10.230457A31.938208 31.938208 0 1 0 9.521228 55.436288l264.872923 262.37925-150.931209 0.383642a26.279486 26.279486 0 0 0-26.85495 23.849752l0.031971 16.400702c0.319702 12.947922 10.997741 23.625961 23.913693 23.913693l229.290115-0.991076c0.255761 0.03197 0.415612 0.095911 0.639403 0.095911l11.701086 0.255761a22.091393 22.091393 0 0 0 16.368731-6.553886c4.220063-4.156123 5.690692-9.942725 5.594781-16.432672l-1.278807-11.701085c0.03197-0.223791 0.863195-0.383642 0.863194-0.607433z m262.539101 28.70922c4.124153 4.156123 9.942725 6.713737 16.368731 6.553886l11.701085-0.255761c0.223791 0 0.383642-0.06394 0.639403-0.127881l229.290116 0.991076a24.680977 24.680977 0 0 0 23.881722-23.913693l0.031971-16.400702a26.279486 26.279486 0 0 0-26.85495-23.849752l-150.931209-0.383642 264.872923-262.37925A31.938208 31.938208 0 1 0 970.065221 10.230457l-265.99188 263.466235 0.863195-155.087332c0.287732-12.915952-9.942725-24.169454-22.858677-23.881723l-16.400701 0.03197c-12.947922 0.319702-23.625961 7.992544-23.913693 20.908496l-0.671374 230.792714c0 0.223791 0.863195 0.383642 0.863195 0.639404l-1.278807 11.701085c-0.159851 6.489946 1.374718 12.276548 5.56281 16.432671z m-267.718269 271.618631a22.155333 22.155333 0 0 0-16.368731-6.553887l-11.701086 0.287732c-0.223791 0-0.383642 0.095911-0.639403 0.09591l-229.322086-1.023045a24.680977 24.680977 0 0 0-23.913693 23.881722l-0.03197 16.432672c1.982151 15.217805 13.938998 24.137484 26.85495 23.817782l151.12303 0.383642-265.032774 263.370325a31.938208 31.938208 0 1 0 45.205831 45.205832l266.02385-264.32943-0.895165 155.950527c-0.287732 12.915952 9.974695 24.169454 22.890647 23.881723l16.400702-0.03197c12.947922-0.319702 23.625961-7.992544 23.913693-20.908497l0.671373-230.792713c0-0.223791-0.863195-0.351672-0.863194-0.607434l1.278807-12.69216c0.159851-6.489946-1.374718-12.276548-5.562811-16.432672z m371.685287 57.418439l151.12303-0.383642a26.279486 26.279486 0 0 0 26.85495-23.817783l-0.03197-16.432671a24.712947 24.712947 0 0 0-23.913693-23.913693h-229.290116c-0.255761 0-0.415612-0.095911-0.639403-0.095911l-13.683236-0.287731c-6.426006-0.191821-12.276548 4.347944-16.368731 8.536037-4.188093 4.156123-5.690692 9.942725-5.562811 16.432672l1.278807 11.701085c0 0.255761-0.863195 0.383642-0.863195 0.607433l0.671374 230.792714c0.287732 12.915952 10.965771 20.588795 23.913693 20.908496l17.391776 0.03197c12.915952 0.287732 23.178379-10.965771 22.858678-23.881723l-0.863195-154.383988 267.014925 262.794861a31.938208 31.938208 0 1 0 45.205831-45.205831z" p-id="94117"></path></svg>