<?xml version="1.0" standalone="no"?><!DOCTYPE svg PUBLIC "-//W3C//DTD SVG 1.1//EN" "http://www.w3.org/Graphics/SVG/1.1/DTD/svg11.dtd"><svg t="1574493655471" class="icon" viewBox="0 0 1024 1024" version="1.1" xmlns="http://www.w3.org/2000/svg" p-id="82750" xmlns:xlink="http://www.w3.org/1999/xlink" width="200" height="200"><defs><style type="text/css"></style></defs><path d="M364.992 346.816L82.24 64h190.272c9.216 0 16.704-7.104 16.704-15.936S281.728 32.128 272.512 32.128H45.696L45.312 32.256 44.928 32.128C41.984 32.128 39.68 33.92 37.312 35.456 36.16 36.096 34.688 36.096 33.792 36.992 32.96 37.824 33.024 39.168 32.448 40.192 30.848 42.688 28.992 44.992 28.992 48.064l0.128 0.384-0.128 0.448v226.752c0 9.28 7.104 16.768 15.936 16.768s15.936-7.488 15.936-16.768V87.936L342.4 369.408a15.936 15.936 0 0 0 22.656 0 16 16 0 0 0-0.064-22.592zM679.936 368.832l282.816-282.752v190.272c0 9.28 7.104 16.768 15.936 16.768s15.936-7.488 15.936-16.768V49.536c0-0.192-0.192-0.256-0.192-0.448 0-0.128 0.192-0.192 0.192-0.384 0-2.944-1.792-5.184-3.328-7.552-0.64-1.152-0.64-2.624-1.472-3.584-0.896-0.832-2.24-0.768-3.264-1.344-2.432-1.536-4.736-3.456-7.872-3.456l-0.384 0.192-0.384-0.192h-226.816c-9.28 0-16.768 7.104-16.768 15.936s7.488 15.936 16.768 15.936h187.712l-281.472 281.472a15.872 15.872 0 0 0-4.608 11.328 16 16 0 0 0 27.2 11.392zM657.984 677.248L940.736 960h-190.272a16.32 16.32 0 0 0-16.768 16c0 8.768 7.488 15.872 16.768 15.872h226.752l0.384-0.128 0.384 0.128c3.008 0 5.248-1.728 7.616-3.264 1.152-0.64 2.624-0.64 3.52-1.472s0.768-2.24 1.344-3.264c1.6-2.496 3.52-4.736 3.52-7.872l-0.192-0.384 0.192-0.384v-226.88a16.32 16.32 0 0 0-16-16.768 16.32 16.32 0 0 0-15.872 16.768v187.776l-281.472-281.472a16 16 0 0 0-22.656 22.592zM342.976 655.232L60.224 937.984v-190.272a16.32 16.32 0 0 0-16-16.768 16.32 16.32 0 0 0-15.872 16.768v226.752l0.128 0.384-0.128 0.384c0 3.008 1.728 5.248 3.264 7.616 0.64 1.152 0.64 2.624 1.472 3.52s2.24 0.768 3.264 1.344c2.496 1.6 4.736 3.52 7.872 3.52l0.384-0.192 0.384 0.192h226.88a16.32 16.32 0 0 0 16.768-16 16.32 16.32 0 0 0-16.768-15.872H84.096l281.472-281.472a16 16 0 0 0-22.592-22.656z" p-id="82751"></path></svg>