<svg class="icon" viewBox="0 0 1024 1024" xmlns="http://www.w3.org/2000/svg" width="200" height="200"><defs><style/></defs><path d="M512 151.704c-177.759 0-322.37 144.611-322.37 322.37a321.612 321.612 0 0 0 208.592 301.511v172.563a18.963 18.963 0 0 0 18.963 18.963h18.963v37.926A18.963 18.963 0 0 0 455.111 1024H568.89a18.963 18.963 0 0 0 18.963-18.963v-37.926h18.963a18.963 18.963 0 0 0 18.963-18.963V775.585a321.612 321.612 0 0 0 208.592-301.51c0-177.76-144.611-322.371-322.37-322.371zm56.889 777.481a18.963 18.963 0 0 0-18.963 18.963v37.926h-75.852v-37.926a18.963 18.963 0 0 0-18.963-18.963h-18.963V834.37h151.704v94.815h-18.963zm32.01-185.04a18.963 18.963 0 0 0-13.047 18.014v34.285H436.148V762.16a18.963 18.963 0 0 0-13.046-18.014 283.8 283.8 0 0 1-195.546-270.07C227.556 317.23 355.157 189.63 512 189.63s284.444 127.6 284.444 284.444c0 123.07-78.601 231.614-195.546 270.07zM512 113.778a18.963 18.963 0 0 0 18.963-18.963V18.963a18.963 18.963 0 1 0-37.926 0v75.852A18.963 18.963 0 0 0 512 113.778zM967.111 455.11H891.26a18.963 18.963 0 1 0 0 37.926h75.852a18.963 18.963 0 1 0 0-37.926zm-834.37 0H56.889a18.963 18.963 0 1 0 0 37.926h75.852a18.963 18.963 0 1 0 0-37.926zm687.673-316.264l-53.628 53.627a18.944 18.944 0 1 0 26.814 26.814l53.627-53.628a18.944 18.944 0 1 0-26.813-26.813zM230.4 728.86l-53.627 53.628a18.944 18.944 0 1 0 26.813 26.813l53.628-53.627A18.944 18.944 0 1 0 230.4 728.86zm563.2 0a18.944 18.944 0 1 0-26.814 26.814l53.628 53.627a18.906 18.906 0 0 0 26.813 0 18.944 18.944 0 0 0 0-26.813L793.6 728.86zM230.4 219.288a18.906 18.906 0 0 0 26.814 0 18.944 18.944 0 0 0 0-26.814l-53.628-53.627a18.944 18.944 0 1 0-26.813 26.813l53.627 53.628z"/><path d="M512 246.519c-125.478 0-227.556 102.077-227.556 227.555a18.963 18.963 0 1 0 37.926 0c0-104.562 85.068-189.63 189.63-189.63a18.963 18.963 0 1 0 0-37.925z"/></svg>