<?xml version="1.0" standalone="no"?><!DOCTYPE svg PUBLIC "-//W3C//DTD SVG 1.1//EN" "http://www.w3.org/Graphics/SVG/1.1/DTD/svg11.dtd"><svg t="1574317640972" class="icon" viewBox="0 0 1024 1024" version="1.1" xmlns="http://www.w3.org/2000/svg" p-id="26963" xmlns:xlink="http://www.w3.org/1999/xlink" width="200" height="200"><defs><style type="text/css"></style></defs><path d="M512 151.703704c-177.758815 0-322.37037 144.611556-322.37037 322.37037a321.611852 321.611852 0 0 0 208.592592 301.511111V948.148148a18.962963 18.962963 0 0 0 18.962963 18.962963h18.962963v37.925926a18.962963 18.962963 0 0 0 18.962963 18.962963h113.777778a18.962963 18.962963 0 0 0 18.962963-18.962963v-37.925926h18.962963a18.962963 18.962963 0 0 0 18.962963-18.962963v-172.562963A321.611852 321.611852 0 0 0 834.37037 474.074074c0-177.758815-144.611556-322.37037-322.37037-322.37037z m56.888889 777.481481a18.962963 18.962963 0 0 0-18.962963 18.962963v37.925926h-75.851852v-37.925926a18.962963 18.962963 0 0 0-18.962963-18.962963h-18.962963v-94.814815h151.703704v94.814815h-18.962963z m32.009481-185.040592a18.962963 18.962963 0 0 0-13.046518 18.014814V796.444444h-151.703704v-34.285037a18.962963 18.962963 0 0 0-13.046518-18.014814A283.799704 283.799704 0 0 1 227.555556 474.074074c0-156.842667 127.601778-284.444444 284.444444-284.444444s284.444444 127.601778 284.444444 284.444444c0 123.06963-78.601481 231.61363-195.546074 270.070519zM512 113.777778a18.962963 18.962963 0 0 0 18.962963-18.962963V18.962963a18.962963 18.962963 0 1 0-37.925926 0v75.851852a18.962963 18.962963 0 0 0 18.962963 18.962963zM967.111111 455.111111h-75.851852a18.962963 18.962963 0 1 0 0 37.925926h75.851852a18.962963 18.962963 0 1 0 0-37.925926zM132.740741 455.111111H56.888889a18.962963 18.962963 0 1 0 0 37.925926h75.851852a18.962963 18.962963 0 1 0 0-37.925926zM820.41363 138.846815l-53.62726 53.627259a18.944 18.944 0 1 0 26.81363 26.81363l53.627259-53.62726a18.944 18.944 0 1 0-26.813629-26.813629zM230.4 728.860444l-53.627259 53.62726a18.944 18.944 0 1 0 26.813629 26.813629l53.62726-53.627259a18.944 18.944 0 1 0-26.81363-26.81363zM793.6 728.860444a18.944 18.944 0 1 0-26.81363 26.81363l53.62726 53.627259a18.906074 18.906074 0 0 0 26.813629 0 18.944 18.944 0 0 0 0-26.813629l-53.627259-53.62726zM230.4 219.287704a18.906074 18.906074 0 0 0 26.81363 0 18.944 18.944 0 0 0 0-26.81363l-53.62726-53.627259a18.944 18.944 0 1 0-26.813629 26.813629l53.627259 53.62726z" fill="" p-id="26964"></path><path d="M512 246.518519c-125.477926 0-227.555556 102.07763-227.555556 227.555555a18.962963 18.962963 0 1 0 37.925926 0c0-104.561778 85.067852-189.62963 189.62963-189.62963a18.962963 18.962963 0 1 0 0-37.925925z" fill="" p-id="26965"></path></svg>