<?xml version="1.0" standalone="no"?><!DOCTYPE svg PUBLIC "-//W3C//DTD SVG 1.1//EN" "http://www.w3.org/Graphics/SVG/1.1/DTD/svg11.dtd"><svg t="1574493639943" class="icon" viewBox="0 0 1024 1024" version="1.1" xmlns="http://www.w3.org/2000/svg" p-id="82632" xmlns:xlink="http://www.w3.org/1999/xlink" width="200" height="200"><defs><style type="text/css"></style></defs><path d="M881.6 793.6c6.4-8 11.2-16 17.6-24 1.6-3.2 3.2-6.4 6.4-9.6 4.8-6.4 8-12.8 12.8-20.8s4.8-9.6 8-14.4 6.4-11.2 8-17.6 4.8-8 6.4-12.8l9.6-24 4.8-14.4c1.6-6.4 4.8-14.4 6.4-20.8 1.6-4.8 3.2-11.2 3.2-16s3.2-14.4 4.8-22.4l1.6-11.2c1.6-9.6 3.2-20.8 3.2-30.4v-8c0-11.2 1.6-22.4 1.6-33.6s0-19.2-1.6-28.8v-8c0-8-1.6-14.4-1.6-22.4V448c-1.6-8-3.2-17.6-4.8-25.6v-1.6c-1.6-9.6-3.2-19.2-6.4-28.8v-1.6c-9.6-36.8-24-72-43.2-105.6-1.6-3.2-4.8-8-6.4-11.2l-3.2-1.6c-3.2-6.4-6.4-11.2-11.2-16l-1.6-3.2c-3.2-6.4-8-11.2-12.8-17.6-12.8-17.6-27.2-35.2-43.2-51.2-4.8-4.8-9.6-9.6-16-14.4l-1.6-1.6-14.4-12.8-3.2-1.6c-3.2-3.2-6.4-4.8-9.6-8h-1.6c-164.8-128-395.2-128-561.6-3.2l-1.6 1.6c-3.2 3.2-6.4 6.4-11.2 8l-4.8 3.2-14.4 12.8-3.2 3.2c-8 8-17.6 16-25.6 25.6l-4.8 4.8-11.2 12.8c-1.6 3.2-4.8 4.8-6.4 8s-4.8 6.4-6.4 9.6l-1.6 1.6c-14.4 19.2-27.2 40-38.4 60.8l-1.6 3.2c-1.6 4.8-4.8 8-6.4 12.8v3.2c-108.8 232-8 508.8 224 616 195.2 91.2 425.6 36.8 560-132.8 1.6-1.6 1.6-3.2 3.2-3.2z m60.8-254.4v9.6c0 6.4-1.6 12.8-1.6 17.6 0 3.2 0 6.4-1.6 9.6l-4.8 24c-1.6 4.8-1.6 9.6-3.2 14.4s-1.6 8-3.2 11.2-3.2 9.6-4.8 14.4l-3.2 6.4c-3.2 9.6-6.4 19.2-11.2 28.8l-3.2 6.4c-1.6 4.8-4.8 9.6-6.4 14.4l-4.8 8c-3.2 6.4-8 14.4-11.2 20.8-3.2 3.2-4.8 8-8 12.8l-3.2 4.8-1.6-16c0-3.2-1.6-4.8-3.2-8L848 684.8l12.8-38.4c1.6-6.4 0-14.4-6.4-19.2l-27.2-16 11.2-33.6c3.2-8 0-16-6.4-19.2l-48-28.8c-4.8-1.6-6.4-1.6-9.6-1.6h-73.6l-32-57.6V448l56-64 65.6 1.6 17.6 16c6.4 4.8 16 4.8 20.8 0l9.6-8 27.2 4.8 46.4 24c4.8 1.6 9.6 1.6 14.4 0l6.4-3.2v1.6c1.6 6.4 1.6 11.2 3.2 16l1.6 6.4c1.6 6.4 1.6 12.8 3.2 17.6v4.8c0 6.4 1.6 12.8 1.6 17.6v27.2c0 6.4 1.6 19.2 0 28.8z m-155.2-360c6.4 4.8 12.8 11.2 19.2 17.6l8 8 17.6 17.6 8 9.6c4.8 4.8 8 9.6 12.8 14.4s6.4 8 8 11.2 8 12.8 12.8 17.6l3.2 4.8-76.8 17.6-14.4-19.2c-4.8-6.4-12.8-8-20.8-4.8L713.6 304l-19.2-16 6.4-24h30.4c8 0 14.4-6.4 16-14.4l6.4-51.2 30.4-20.8 3.2 1.6z m-395.2 80l6.4 3.2c8 4.8 19.2 4.8 27.2 0l17.6-6.4h40v19.2L432 299.2c-6.4 3.2-11.2 8-14.4 12.8l-36.8 68.8-19.2 6.4-30.4 3.2c-8 1.6-14.4 4.8-19.2 9.6l-12.8 16c-8 8-11.2 19.2-8 28.8l3.2 17.6c1.6 4.8 4.8 11.2 8 14.4l30.4 32c6.4 6.4 14.4 9.6 22.4 9.6h81.6l40 25.6c3.2 1.6 4.8 3.2 8 3.2l19.2 6.4 1.6 4.8c0 17.6 14.4 32 32 32h28.8l24 27.2-38.4 80c-17.6 0-32 14.4-32 32v24l-54.4 73.6c-3.2 4.8-6.4 11.2-6.4 17.6v20.8l-33.6-14.4v-134.4c0-9.6-4.8-19.2-11.2-24L352 641.6l-12.8-56 4.8-8c8-16 3.2-35.2-12.8-43.2-3.2-1.6-4.8-3.2-8-3.2l-22.4-4.8L288 496c-4.8-11.2-16-19.2-28.8-19.2H256l-24 1.6-27.2-19.2v-28.8c0-12.8-8-24-19.2-28.8l-28.8-12.8-35.2-62.4v-1.6-1.6c1.6-4.8 4.8-8 6.4-12.8l36.8-59.2 9.6-9.6 6.4-8c3.2-3.2 6.4-8 9.6-11.2l4.8-4.8 24-24 1.6-3.2c4.8-3.2 9.6-8 12.8-11.2l6.4-3.2 9.6-8 65.6 3.2 20.8 9.6c4.8 3.2 11.2 3.2 16 3.2l70.4-8 3.2 3.2-38.4 25.6c-14.4 9.6-19.2 28.8-9.6 44.8 4.8 4.8 9.6 8 14.4 9.6zM512 944C273.6 944 80 750.4 80 512c0-51.2 9.6-100.8 25.6-148.8L128 403.2c3.2 6.4 8 11.2 14.4 12.8l28.8 12.8v28.8c0 9.6 4.8 19.2 12.8 25.6l25.6 19.2c6.4 4.8 14.4 6.4 22.4 6.4l24-1.6 14.4 32c4.8 9.6 12.8 16 22.4 17.6l22.4 4.8-4.8 8c-3.2 6.4-4.8 16-3.2 22.4l12.8 56c1.6 6.4 4.8 12.8 11.2 17.6l62.4 51.2v136c0 12.8 8 24 19.2 28.8l33.6 14.4c3.2 1.6 8 3.2 12.8 3.2 6.4 0 11.2-1.6 17.6-4.8 8-6.4 14.4-14.4 14.4-25.6V848l54.4-73.6c4.8-6.4 6.4-12.8 6.4-19.2v-24c12.8 0 24-8 28.8-19.2l36.8-80c4.8-11.2 3.2-24-4.8-33.6L592 569.6c-6.4-6.4-14.4-11.2-24-11.2h-28.8c0-3.2 0-8-1.6-11.2l-1.6-6.4c-3.2-9.6-11.2-16-20.8-19.2l-19.2-6.4-40-25.6c-4.8-3.2-11.2-4.8-17.6-4.8h-81.6l-30.4-32-3.2-16 14.4-14.4 30.4-3.2c1.6 0 4.8 0 6.4-1.6l19.2-6.4c8-3.2 14.4-8 17.6-16l36.8-68.8 51.2-25.6c11.2-4.8 17.6-16 17.6-28.8v-17.6c0-17.6-14.4-32-32-32h-40c-4.8 0-9.6 1.6-12.8 3.2l-17.6 8-6.4-3.2 38.4-24c8-4.8 12.8-12.8 14.4-20.8 1.6-8 0-17.6-4.8-24l-3.2-3.2c-9.6-9.6-20.8-14.4-32-12.8l-70.4 8-22.4-9.6c-3.2-1.6-8-3.2-11.2-3.2l-22.4-1.6c145.6-84.8 326.4-78.4 464 17.6L731.2 176c-3.2 3.2-6.4 6.4-6.4 11.2l-4.8 44.8h-28.8c-8 0-14.4 4.8-16 11.2l-12.8 46.4c-1.6 6.4 0 12.8 4.8 17.6l36.8 30.4c3.2 3.2 6.4 3.2 9.6 3.2 3.2 0 4.8 0 8-1.6l49.6-25.6 12.8 16c3.2 4.8 9.6 6.4 16 6.4l96-22.4c12.8 24 22.4 49.6 30.4 75.2l-4.8 3.2-43.2-24c-1.6 0-3.2-1.6-4.8-1.6l-36.8-6.4c-4.8 0-9.6 0-12.8 3.2l-4.8 4.8-11.2-11.2c-3.2-3.2-6.4-4.8-11.2-4.8l-80-1.6c-4.8 0-9.6 1.6-12.8 4.8l-64 75.2c-3.2 3.2-3.2 6.4-3.2 11.2v32c0 3.2 0 4.8 1.6 8l38.4 68.8c3.2 4.8 8 8 14.4 8h78.4l33.6 19.2-11.2 33.6c-3.2 6.4 0 14.4 6.4 19.2l27.2 17.6-11.2 33.6c-1.6 4.8 0 9.6 1.6 14.4l27.2 38.4 4.8 48C766.4 883.2 643.2 944 512 944z" p-id="82633"></path></svg>