<?xml version="1.0" standalone="no"?><!DOCTYPE svg PUBLIC "-//W3C//DTD SVG 1.1//EN" "http://www.w3.org/Graphics/SVG/1.1/DTD/svg11.dtd"><svg t="1574317306617" class="icon" viewBox="0 0 1024 1024" version="1.1" xmlns="http://www.w3.org/2000/svg" p-id="10896" xmlns:xlink="http://www.w3.org/1999/xlink" width="200" height="200"><defs><style type="text/css"></style></defs><path d="M817.845757 344.015078l-55.874565 0L761.971192 288.135396c0-124.046201-116.653837-223.491097-251.434519-223.491097-134.774543 0-251.42838 99.444896-251.42838 223.491097l0 55.879682-55.874565 0c-59.69559 0-111.754247 56.901964-111.754247 111.748107l0 391.125025c0 54.946426 52.170197 111.74299 111.754247 111.74299l614.611006 0c59.690474 0 111.754247-56.908104 111.754247-111.74299L929.59898 455.764208C929.600003 348.239286 817.845757 344.015078 817.845757 344.015078zM314.977741 288.135396c0-98.556667 87.761809-167.611415 195.559954-167.611415 107.809401 0 195.565071 69.054749 195.565071 167.611415l0 55.879682L314.977741 344.015078 314.977741 288.135396zM873.725438 846.889233c0 19.48375-34.821063 55.868425-55.879682 55.868425L203.234751 902.757658c-21.171182 0-55.874565-36.485983-55.874565-55.868425L147.360186 455.764208c0-19.48375 34.809807-55.874565 55.874565-55.874565l614.611006 0c21.171182 0 55.879682 36.491099 55.879682 55.874565L873.725438 846.889233z" p-id="10897"></path><path d="M510.537695 511.63775c46.291302 0 83.811848 37.524638 83.811848 83.810824 0 46.291302-37.519522 83.810824-83.811848 83.810824-46.286186 0-83.805708-37.519522-83.805708-83.810824C426.731988 549.163411 464.251509 511.63775 510.537695 511.63775z" p-id="10898"></path><path d="M482.605529 679.260421l55.868425 0 0 111.748107L482.605529 791.008528 482.605529 679.260421z" p-id="10899"></path></svg>