<svg class="icon" viewBox="0 0 1024 1024" xmlns="http://www.w3.org/2000/svg" width="200" height="200"><defs><style/></defs><path d="M817.846 344.015H761.97v-55.88c0-124.046-116.654-223.49-251.434-223.49-134.775 0-251.429 99.444-251.429 223.49v55.88h-55.874c-59.696 0-111.755 56.902-111.755 111.748v391.125c0 54.947 52.17 111.743 111.755 111.743h614.61c59.691 0 111.755-56.908 111.755-111.743V455.764c.001-107.525-111.753-111.749-111.753-111.749zm-502.868-55.88c0-98.556 87.762-167.611 195.56-167.611 107.81 0 195.565 69.055 195.565 167.611v55.88H314.978v-55.88zM873.725 846.89c0 19.484-34.82 55.869-55.88 55.869h-614.61c-21.171 0-55.875-36.486-55.875-55.869V455.764c0-19.484 34.81-55.874 55.875-55.874h614.61c21.172 0 55.88 36.49 55.88 55.874V846.89z"/><path d="M510.538 511.638c46.291 0 83.812 37.524 83.812 83.81 0 46.292-37.52 83.811-83.812 83.811-46.286 0-83.806-37.52-83.806-83.81 0-46.286 37.52-83.811 83.806-83.811zM482.606 679.26h55.868v111.75h-55.868V679.26z"/></svg>