<?xml version="1.0" standalone="no"?><!DOCTYPE svg PUBLIC "-//W3C//DTD SVG 1.1//EN" "http://www.w3.org/Graphics/SVG/1.1/DTD/svg11.dtd"><svg t="1574495025538" class="icon" viewBox="0 0 1024 1024" version="1.1" xmlns="http://www.w3.org/2000/svg" p-id="93891" xmlns:xlink="http://www.w3.org/1999/xlink" width="200" height="200"><defs><style type="text/css"></style></defs><path d="M632 106.5L803.7 240H632V106.5M624 80h-8v176h224v-8L624 80zM741.2 675.3c-7.6-10.1-22.5-16.1-44.3-17.6-51.9-3.7-93.1 7-97.1 8.1-4.8-2.7-69.5-41-101.8-129.5 1.5-3.6 15.8-39.8 8-87.1l-0.8-4.6-0.8 4.6c-3.9 21.7-10.9 54.2-15 60.9-2-7.7-11-43.5-13.1-74.4-1.6-23 3.2-44.2 10.1-45.3 2.8-0.5 5.5 0.6 8.1 3.1 9.3 9.2 14.1 35.7 12.6 44.9l-0.6 3.3 2-2.7c0.2-0.3 5.5-7.8 5.5-27.7 0-10.8-9-28-33.2-28-8.2 0-14.1 2.3-18.4 7.2-7.9 8.9-10.1 26.4-6.7 53.5 6.1 49.2 20.3 101.5 21.5 105.8-4.6 10.1-130.6 284.9-182.5 284.9-0.7 0-1.5-0.1-2.2-0.2-2.6-32.5 79.9-95.9 80.7-96.5l3.5-2.7-4.2 1.3c-0.6 0.2-59.6 18.4-94.9 79.2-2.1 3.6-5.1 10.6-1.8 17.4 3.6 7.2 13.5 11.9 29.4 13.7 0.5 0.1 1 0.1 1.5 0.1 20 0 66.9-41.3 107.1-122.5 6.1-2 98.6-32.6 174.8-40.6 6.7 3.5 105.4 55.3 141.9 36.9 7.3-3.7 11.6-9.9 12.9-18.6l0.4-2.4-1.7 1.7c-0.2 0.2-24.4 22.6-115.6-23.4 14.5-1.8 87-9.4 118.3 16.5l1 0.8 0.3-1.3c0.2-0.6 2-9.7-4.9-18.8zM568 671.5c-13.5 2.2-98.9 17-147.4 39.5 8.6-15.7 58.2-107.4 65.9-137 4.9 10.3 28.2 55.7 81.5 97.5zM512 152.2V136h-64v96h16v-40h40v-16h-40v-24zM417.5 146.7c-3.8-4.2-8.5-7.2-13.9-8.8-4-1.2-9.9-1.8-17.5-1.8h-33.9v96h34.9c6.9 0 12.3-0.7 16.4-2 5.5-1.8 9.8-4.4 13-7.7 4.3-4.3 7.5-10 9.9-17 1.9-5.7 2.8-12.5 2.8-20.4 0-9-1-16.5-3-22.7-1.9-6.2-4.8-11.4-8.7-15.6z m-9.2 55c-1.3 4.3-2.9 7.4-4.9 9.3-2 1.9-4.5 3.2-7.5 4-2.3 0.6-6 0.9-11.2 0.9l-16.7 0.1v-64s22.8 0.3 26.4 1.2c3.5 0.8 6.3 2.3 8.6 4.5s4 5.3 5.3 9.3c1.3 4 1.9 9.7 1.9 17.1-0.1 7.4-0.7 13.2-1.9 17.6zM315.9 137.4c-3.4-1-10.8-1.4-22.1-1.4H264v96h18.6v-36.2h12.1c8.4 0 14.8-0.5 19.3-1.4 3.3-0.7 6.5-2.3 9.6-4.6 3.2-2.3 5.8-5.4 7.8-9.5s3.1-9 3.1-14.9c0-7.6-1.8-13.9-5.3-18.7-3.7-4.7-8.1-7.8-13.3-9.3z m-2.7 35.9c-1.4 2.1-3.3 3.7-5.8 4.7s-7.4 1.5-14.7 1.5h-10.2v-27.2h9c6.7 0 11.1 0.2 13.4 0.7 3 0.6 5.5 2 7.5 4.3s2.9 5.2 2.9 8.7c0 2.6-0.7 5.1-2.1 7.3z" p-id="93892"></path><path d="M576 96v200h248v632H200V96h376m16-16H184v864h656V280H592V80z" p-id="93893"></path></svg>