<svg class="icon" viewBox="0 0 1024 1024" xmlns="http://www.w3.org/2000/svg" width="200" height="200"><defs><style/></defs><path d="M889.7 895.9c-26.6-152.5-140.6-270.4-285.5-306 93.5-36.8 159.8-128 159.8-234.4 0-139-113-252-252-252s-252 113.1-252 252c0 106.4 66.3 197.6 159.7 234.5C274.9 625.6 161 743.3 134.3 895.8c-2 11.4 5.7 22.3 17.1 24.3 11.4 2 22.3-5.7 24.3-17.1 28.6-163.5 170-282.2 336.3-282.2s307.8 118.7 336.3 282.3c1.8 10.2 10.6 17.4 20.7 17.4 1.2 0 2.4-.1 3.6-.3 11.4-2 19.1-12.8 17.1-24.3zM302 355.5c0-116 94.1-210 210-210s210 94 210 210-94.1 210-210 210c-116 0-210-94.1-210-210z"/></svg>