<svg class="icon" viewBox="0 0 1024 1024" xmlns="http://www.w3.org/2000/svg" width="200" height="200"><defs><style/></defs><path d="M798.72 0H225.28A122.88 122.88 0 0 0 102.4 122.88v778.24A122.88 122.88 0 0 0 225.28 1024h573.44A122.88 122.88 0 0 0 921.6 901.12V122.88A122.88 122.88 0 0 0 798.72 0zm71.68 901.12a71.68 71.68 0 0 1-71.68 71.68H225.28a71.68 71.68 0 0 1-71.68-71.68V122.88a71.68 71.68 0 0 1 71.68-71.68h573.44a71.68 71.68 0 0 1 71.68 71.68z"/><path d="M262.963 215.86h163.84a25.6 25.6 0 0 0 0-51.2h-163.84a25.6 25.6 0 0 0 0 51.2zm0 132.3h163.84a25.6 25.6 0 0 0 0-51.2h-163.84a25.6 25.6 0 0 0 0 51.2zm498.074-184.32h-199.68a25.6 25.6 0 0 0-25.6 25.6v266.24a25.6 25.6 0 0 0 25.6 25.6h199.68a25.6 25.6 0 0 0 25.6-25.6V189.44a25.6 25.6 0 0 0-25.6-25.6zm-25.6 266.24h-148.48V215.86h148.48zm-305.357 0H269.517a25.6 25.6 0 0 0 0 51.2H430.08a25.6 25.6 0 0 0 0-51.2zm327.68 193.74H266.24a25.6 25.6 0 0 0 0 52.02h491.52a25.6 25.6 0 0 0 0-51.2zm0 163.84H266.24a25.6 25.6 0 0 0 0 52.02h491.52a25.6 25.6 0 0 0 0-51.2z"/></svg>