<?xml version="1.0" standalone="no"?><!DOCTYPE svg PUBLIC "-//W3C//DTD SVG 1.1//EN" "http://www.w3.org/Graphics/SVG/1.1/DTD/svg11.dtd"><svg t="1574493813561" class="icon" viewBox="0 0 1024 1024" version="1.1" xmlns="http://www.w3.org/2000/svg" p-id="83431" xmlns:xlink="http://www.w3.org/1999/xlink" width="200" height="200"><defs><style type="text/css"></style></defs><path d="M777.17394 753.675248l-95.097892-95.083565c127.691217-139.328255 124.489292-356.350011-10.42442-491.279073C604.489996 100.150978 515.190157 63.186088 420.229388 63.186088c-94.959745 0-184.245258 36.96489-251.391541 104.126522-67.161632 67.160609-104.140849 156.429749-104.140849 251.405867-0.014326 94.960769 36.979216 184.245258 104.140849 251.405867 67.146283 67.161632 156.430772 104.140849 251.391541 104.140849 89.73986 0 174.169785-33.366945 239.889579-93.669356l278.234909 278.203186 21.971407-21.971407L777.17394 753.675248zM649.680221 648.152936c-61.289901 61.288878-142.774751 95.036493-229.450832 95.036493-86.659709 0-168.130232-33.747615-229.41911-95.036493-61.288878-61.289901-95.036493-142.773727-95.036493-229.433436 0-86.675058 33.747615-168.160931 95.036493-229.434459 61.288878-61.273529 142.759401-95.021144 229.41911-95.021144 86.675058 0 168.160931 33.747615 229.450832 95.021144C776.18645 315.792293 776.18645 521.645684 649.680221 648.152936z" p-id="83432"></path></svg>