<?xml version="1.0" standalone="no"?><!DOCTYPE svg PUBLIC "-//W3C//DTD SVG 1.1//EN" "http://www.w3.org/Graphics/SVG/1.1/DTD/svg11.dtd"><svg t="1574495038747" class="icon" viewBox="0 0 1049 1024" version="1.1" xmlns="http://www.w3.org/2000/svg" p-id="94004" xmlns:xlink="http://www.w3.org/1999/xlink" width="204.8828125" height="200"><defs><style type="text/css"></style></defs><path d="M210.56 575.872h257.7152L334.848 281.344 210.56 575.872z m-21.5808 51.2l-90.624 214.7584L51.2 821.9136 333.1584 153.6l302.5408 667.6992-46.6176 21.1456-97.6128-215.3728H188.9792z m726.016-42.5984c0-33.3056-8.7552-58.1632-26.24-74.5472-17.4592-16.384-42.8544-24.576-76.1856-24.576-22.9376 0-44.2368 4.096-63.8976 12.288a152.7808 152.7808 0 0 0-49.9712 32.768l-31.1296-36.864c15.8464-15.8464 36.736-28.928 62.6688-39.3216 25.9584-10.368 55.296-15.5648 88.064-15.5648 20.7616 0 40.1408 2.8672 58.1632 8.6016 18.0224 5.7344 33.8688 14.336 47.5136 25.8048 13.6704 11.4688 24.32 25.9328 31.9488 43.4176 7.6544 17.4848 11.4688 37.9648 11.4688 61.44v167.936c0 14.7456 0.5632 30.0288 1.6384 45.8752 1.1008 15.8464 2.7392 29.2096 4.9152 40.1408h-49.9712a409.5232 409.5232 0 0 1-4.096-30.3104 321.1008 321.1008 0 0 1-1.6384-31.9488h-1.6384c-17.4592 25.6768-37.2736 44.1088-59.392 55.296-22.1184 11.1872-48.7424 16.7936-79.872 16.7936-14.7456 0-29.9008-2.048-45.4656-6.144a127.2832 127.2832 0 0 1-42.5984-20.0704 113.4592 113.4592 0 0 1-31.9488-36.0448c-8.448-14.7456-12.6976-32.768-12.6976-54.0672 0-29.4912 7.5264-52.8384 22.528-70.0416 15.0272-17.2032 35.0976-30.0288 60.2112-38.5024 25.1392-8.448 53.9392-13.9264 86.4256-16.384a1342.208 1342.208 0 0 1 101.1712-3.6864v-12.288z m-16.384 55.7056c-22.9632 0-46.0288 0.9472-69.248 2.8672-23.1936 1.92-44.2368 5.7344-63.0784 11.4688s-34.2528 14.08-46.2848 24.9856c-12.0064 10.9312-18.0224 25.3952-18.0224 43.4176 0 13.6448 2.6112 25.1136 7.7824 34.4064 5.1968 9.2928 12.16 16.7936 20.8896 22.528 8.7552 5.7344 18.432 9.8304 29.0816 12.288 10.6496 2.4576 21.4528 3.6864 32.3584 3.6864 19.6608 0 37.1456-3.4048 52.4288-10.24a110.9248 110.9248 0 0 0 38.5024-27.8528c10.3936-11.7504 18.304-25.2672 23.7568-40.5504a142.592 142.592 0 0 0 8.192-48.3328v-28.672h-16.384z" p-id="94005"></path></svg>