<?xml version="1.0" standalone="no"?><!DOCTYPE svg PUBLIC "-//W3C//DTD SVG 1.1//EN" "http://www.w3.org/Graphics/SVG/1.1/DTD/svg11.dtd"><svg t="1614687053494" class="icon" viewBox="0 0 1024 1024" version="1.1" xmlns="http://www.w3.org/2000/svg" p-id="3583" xmlns:xlink="http://www.w3.org/1999/xlink" width="200" height="200"><defs><style type="text/css"></style></defs><path d="M876.373333 197.12h-110.933333V100.693333c0-33.28-26.453333-59.733333-59.733333-59.733333H149.333333c-33.28 0-59.733333 26.453333-59.733333 59.733333v671.573334c0 33.28 26.453333 59.733333 59.733333 59.733333h110.933334v96.426667c0 33.28 26.453333 59.733333 59.733333 59.733333h556.373333c33.28 0 59.733333-26.453333 59.733334-59.733333V256.853333c0-33.28-26.453333-59.733333-59.733334-59.733333zM106.666667 100.693333c0-23.893333 18.773333-42.666667 42.666666-42.666666h556.373334c23.893333 0 42.666667 18.773333 42.666666 42.666666v96.426667H106.666667V100.693333z m0 671.573334V214.186667h641.706666v558.08c0 23.893333-18.773333 42.666667-42.666666 42.666666H149.333333c-23.893333 0-42.666667-18.773333-42.666666-42.666666z m812.373333 156.16c0 23.893333-18.773333 42.666667-42.666667 42.666666H320c-23.893333 0-42.666667-18.773333-42.666667-42.666666V832h428.373334c33.28 0 59.733333-26.453333 59.733333-59.733333V370.346667h153.6v558.08z m-153.6-575.146667V214.186667h110.933333c23.893333 0 42.666667 18.773333 42.666667 42.666666v96.426667h-153.6z" p-id="3584"></path><path d="M522.24 119.466667h-14.506667c-5.12 0-8.533333 3.413333-8.533333 8.533333s3.413333 8.533333 8.533333 8.533333h14.506667c5.12 0 8.533333-3.413333 8.533333-8.533333s-4.266667-8.533333-8.533333-8.533333zM669.866667 119.466667h-14.506667c-5.12 0-8.533333 3.413333-8.533333 8.533333s3.413333 8.533333 8.533333 8.533333h14.506667c5.12 0 8.533333-3.413333 8.533333-8.533333s-3.413333-8.533333-8.533333-8.533333zM596.48 119.466667h-14.506667c-5.12 0-8.533333 3.413333-8.533333 8.533333s3.413333 8.533333 8.533333 8.533333h14.506667c5.12 0 8.533333-3.413333 8.533333-8.533333s-4.266667-8.533333-8.533333-8.533333zM428.373333 436.906667h131.413334c5.12 0 8.533333-3.413333 8.533333-8.533334s-3.413333-8.533333-8.533333-8.533333H428.373333c-5.12 0-8.533333 3.413333-8.533333 8.533333s3.413333 8.533333 8.533333 8.533334zM641.706667 354.133333h-213.333334c-5.12 0-8.533333 3.413333-8.533333 8.533334s3.413333 8.533333 8.533333 8.533333h214.186667c5.12 0 8.533333-3.413333 8.533333-8.533333s-4.266667-8.533333-9.386666-8.533334zM559.786667 640.853333H428.373333c-5.12 0-8.533333 3.413333-8.533333 8.533334s3.413333 8.533333 8.533333 8.533333h131.413334c5.12 0 8.533333-3.413333 8.533333-8.533333s-4.266667-8.533333-8.533333-8.533334zM641.706667 575.146667h-213.333334c-5.12 0-8.533333 3.413333-8.533333 8.533333s3.413333 8.533333 8.533333 8.533333h214.186667c5.12 0 8.533333-3.413333 8.533333-8.533333s-4.266667-8.533333-9.386666-8.533333zM352.426667 430.933333c-5.12 0-8.533333 3.413333-8.533334 8.533334v23.893333H215.04V334.506667h64c5.12 0 8.533333-3.413333 8.533333-8.533334s-3.413333-8.533333-8.533333-8.533333h-72.533333c-5.12 0-8.533333 3.413333-8.533334 8.533333v145.92c0 5.12 3.413333 8.533333 8.533334 8.533334h145.92c5.12 0 8.533333-3.413333 8.533333-8.533334v-32.426666c0-4.266667-4.266667-8.533333-8.533333-8.533334zM352.426667 648.533333c-5.12 0-8.533333 3.413333-8.533334 8.533334v23.893333H215.04V552.106667h64c5.12 0 8.533333-3.413333 8.533333-8.533334s-3.413333-8.533333-8.533333-8.533333h-72.533333c-5.12 0-8.533333 3.413333-8.533334 8.533333v145.92c0 5.12 3.413333 8.533333 8.533334 8.533334h145.92c5.12 0 8.533333-3.413333 8.533333-8.533334V657.066667c0-4.266667-4.266667-8.533333-8.533333-8.533334z" p-id="3585"></path><path d="M247.466667 374.613333c-3.413333-3.413333-8.533333-2.56-11.946667 0.853334-3.413333 3.413333-2.56 8.533333 0.853333 11.946666l45.226667 40.96c1.706667 1.706667 3.413333 2.56 5.973333 2.56h0.853334c2.56 0 4.266667-0.853333 5.973333-2.56l63.146667-74.24c3.413333-3.413333 2.56-9.386667-0.853334-11.946666-3.413333-3.413333-8.533333-2.56-11.946666 0.853333l-58.026667 67.413333-39.253333-35.84zM235.52 593.066667c-3.413333 3.413333-2.56 8.533333 0.853333 11.946666l45.226667 40.96c1.706667 1.706667 3.413333 2.56 5.973333 2.56h0.853334c2.56 0 4.266667-0.853333 5.973333-2.56l63.146667-74.24c3.413333-3.413333 2.56-9.386667-0.853334-11.946666-3.413333-3.413333-8.533333-2.56-11.946666 0.853333l-58.026667 67.413333-39.253333-35.84c-3.413333-3.413333-8.533333-3.413333-11.946667 0.853334z" p-id="3586"></path></svg>