<?xml version="1.0" standalone="no"?><!DOCTYPE svg PUBLIC "-//W3C//DTD SVG 1.1//EN" "http://www.w3.org/Graphics/SVG/1.1/DTD/svg11.dtd"><svg t="1574316811528" class="icon" viewBox="0 0 1024 1024" version="1.1" xmlns="http://www.w3.org/2000/svg" p-id="6367" xmlns:xlink="http://www.w3.org/1999/xlink" width="200" height="200"><defs><style type="text/css"></style></defs><path d="M636.8 336H387.2c-39.2 0-71.2-32-71.2-71.2V75.2c0-39.2 32-71.2 71.2-71.2h248.8c39.2 0 71.2 32 71.2 71.2V264c0.8 40-31.2 72-70.4 72zM387.2 36c-21.6 0-39.2 17.6-39.2 39.2V264c0 21.6 17.6 39.2 39.2 39.2h248.8c21.6 0 39.2-17.6 39.2-39.2V75.2c0-21.6-17.6-39.2-39.2-39.2H387.2zM671.2 755.2H352.8c-48 0-87.2-39.2-87.2-87.2V471.2c0-48 39.2-87.2 87.2-87.2h317.6c48 0 87.2 39.2 87.2 87.2v197.6c0 48-39.2 86.4-86.4 86.4zM352.8 416c-30.4 0-55.2 24.8-55.2 55.2v197.6c0 30.4 24.8 55.2 55.2 55.2h317.6c30.4 0 55.2-24.8 55.2-55.2V471.2c0-30.4-24.8-55.2-55.2-55.2H352.8z" p-id="6368"></path><path d="M904 741.6c-8.8 0-16-7.2-16-16v-60.8c0-80.8-65.6-146.4-146.4-146.4-8.8 0-16-7.2-16-16s7.2-16 16-16c98.4 0 178.4 80 178.4 178.4v60.8c0 8.8-7.2 16-16 16z" p-id="6369"></path><path d="M954.4 802.4c-8.8 0-16-7.2-16-16 0-19.2-16-34.4-34.4-34.4-19.2 0-34.4 16-34.4 34.4 0 8.8-7.2 16-16 16s-16-7.2-16-16c0-36.8 29.6-66.4 66.4-66.4 36.8 0 66.4 29.6 66.4 66.4 0 8.8-7.2 16-16 16zM120 741.6c-8.8 0-16-7.2-16-16v-60.8c0-98.4 80-178.4 178.4-178.4 8.8 0 16 7.2 16 16s-7.2 16-16 16C201.6 518.4 136 584 136 664.8v60.8c0 8.8-7.2 16-16 16z" p-id="6370"></path><path d="M171.2 802.4c-8.8 0-16-7.2-16-16 0-19.2-16-34.4-34.4-34.4-19.2 0-34.4 16-34.4 34.4 0 8.8-7.2 16-16 16s-16-7.2-16-16c0-36.8 29.6-66.4 66.4-66.4 36.8 0 66.4 29.6 66.4 66.4 0 8.8-7.2 16-16 16zM589.6 152.8c-21.6 0-39.2-17.6-39.2-39.2s17.6-39.2 39.2-39.2 39.2 17.6 39.2 39.2c0.8 21.6-16.8 39.2-39.2 39.2z m0-62.4c-12.8 0-23.2 10.4-23.2 23.2 0 12.8 10.4 23.2 23.2 23.2 12.8 0 23.2-10.4 23.2-23.2 0.8-12.8-9.6-23.2-23.2-23.2zM434.4 152.8c-21.6 0-39.2-17.6-39.2-39.2s17.6-39.2 39.2-39.2 39.2 17.6 39.2 39.2-17.6 39.2-39.2 39.2z m0-62.4c-12.8 0-23.2 10.4-23.2 23.2 0 12.8 10.4 23.2 23.2 23.2 12.8 0 23.2-10.4 23.2-23.2 0-12.8-10.4-23.2-23.2-23.2zM549.6 212h-76c-4.8 0-8-3.2-8-8s3.2-8 8-8h76c4.8 0 8 3.2 8 8s-3.2 8-8 8zM549.6 265.6h-76c-4.8 0-8-3.2-8-8s3.2-8 8-8h76c4.8 0 8 3.2 8 8 0 4-3.2 8-8 8zM579.2 416H444.8c-8.8 0-16-7.2-16-16V320c0-8.8 7.2-16 16-16h134.4c8.8 0 16 7.2 16 16v80c0 8.8-7.2 16-16 16z m-118.4-32h102.4v-48H460.8v48zM476 827.2H346.4c-8.8 0-16-7.2-16-16v-72c0-8.8 7.2-16 16-16h129.6c8.8 0 16 7.2 16 16v72c0 9.6-7.2 16-16 16z m-113.6-32h97.6v-40H362.4v40z" p-id="6371"></path><path d="M444.8 936h-67.2c-8.8 0-16-7.2-16-16v-108c0-8.8 7.2-16 16-16h67.2c8.8 0 16 7.2 16 16V920c0 8.8-7.2 16-16 16z m-51.2-32h35.2v-76h-35.2v76z" p-id="6372"></path><path d="M444.8 1020H288c-8.8 0-16-7.2-16-16V920c0-8.8 7.2-16 16-16h156.8c8.8 0 16 7.2 16 16v84c0 8.8-7.2 16-16 16z m-140.8-32h124.8V936H304v52zM677.6 827.2H548c-8.8 0-16-7.2-16-16v-72c0-8.8 7.2-16 16-16h129.6c8.8 0 16 7.2 16 16v72c0 9.6-7.2 16-16 16z m-113.6-32h97.6v-40H564v40z" p-id="6373"></path><path d="M646.4 936h-67.2c-8.8 0-16-7.2-16-16v-108c0-8.8 7.2-16 16-16h67.2c8.8 0 16 7.2 16 16V920c0 8.8-7.2 16-16 16z m-51.2-32h35.2v-76h-35.2v76z" p-id="6374"></path><path d="M736 1020H579.2c-8.8 0-16-7.2-16-16V920c0-8.8 7.2-16 16-16H736c8.8 0 16 7.2 16 16v84c0 8.8-7.2 16-16 16z m-140.8-32H720V936H595.2v52z" p-id="6375"></path></svg>