<?xml version="1.0" standalone="no"?><!DOCTYPE svg PUBLIC "-//W3C//DTD SVG 1.1//EN" "http://www.w3.org/Graphics/SVG/1.1/DTD/svg11.dtd"><svg t="1574646973279" class="icon" viewBox="0 0 1024 1024" version="1.1" xmlns="http://www.w3.org/2000/svg" p-id="17579" xmlns:xlink="http://www.w3.org/1999/xlink" width="200" height="200"><defs><style type="text/css"></style></defs><path d="M679.7 801.4H343c-10.1 0-18.4-8.2-18.4-18.4V543l-12.1 12.1c-3.4 3.4-8.1 5.4-13 5.4s-9.5-1.9-13-5.4l-105-105c-7.2-7.2-7.2-18.8 0-26L377 228.8c3.2-3.2 7.5-5.1 12-5.4h0.2c10.1-0.5 18.7 7.2 19.3 17.3 3.2 54.3 48.3 96.8 102.8 96.8 54.3 0 99.3-42.2 102.7-96.3 0.1-2.6 0.6-5.1 1.8-7.5 3.4-7 10.8-11.2 18.5-10.3 4.5 0.5 8.4 2.5 11.3 5.5L841 424.3c7.2 7.2 7.2 18.8 0 26l-105 105c-3.4 3.4-8.1 5.4-13 5.4s-9.5-1.9-13-5.4l-12.1-12.1v240c0.2 10-8 18.2-18.2 18.2z m-318.4-36.7h300V499.1 471.7c0-10.1 8.2-18.4 18.4-18.4 10.1 0 18.4 8.2 18.4 18.4v19.5l25.1 25.1 79-79-158.4-158.4c-18.6 55.6-71.2 95.3-132.5 95.3-61.2 0-113.8-39.7-132.5-95.3L220.5 437.3l79 79 25.1-25.1v-19.5c0-10.1 8.2-18.4 18.4-18.4s18.4 8.2 18.4 18.4v293z" fill="" p-id="17580"></path><path d="M511.3 977.9c-62.8 0-123.8-12.3-181.2-36.6-55.4-23.5-105.2-57-148-99.8s-76.3-92.5-99.8-148C58 636.1 45.7 575.2 45.7 512.3S58 388.5 82.3 331.1c23.5-55.4 57-105.2 99.8-148s92.5-76.3 148-99.8C387.5 59 448.5 46.7 511.3 46.7c62.8 0 123.8 12.3 181.2 36.6 55.4 23.5 105.2 57 148 99.8s76.3 92.5 99.8 148c24.3 57.4 36.6 118.4 36.6 181.2s-12.3 123.8-36.6 181.2c-23.5 55.4-57 105.2-99.8 148s-92.5 76.3-148 99.8c-57.3 24.3-118.3 36.6-181.2 36.6z m0-894.5c-236.5 0-428.9 192.4-428.9 428.9 0 236.5 192.4 428.9 428.9 428.9 236.5 0 428.9-192.4 428.9-428.9 0-236.5-192.4-428.9-428.9-428.9z" fill="" p-id="17581"></path></svg>