<?xml version="1.0" standalone="no"?><!DOCTYPE svg PUBLIC "-//W3C//DTD SVG 1.1//EN" "http://www.w3.org/Graphics/SVG/1.1/DTD/svg11.dtd"><svg t="1574495063047" class="icon" viewBox="0 0 1024 1024" version="1.1" xmlns="http://www.w3.org/2000/svg" p-id="94228" xmlns:xlink="http://www.w3.org/1999/xlink" width="200" height="200"><defs><style type="text/css"></style></defs><path d="M756.010433 847.588151 300.648384 847.588151l-0.023536-438.686251-127.455857 85.381599L79.984682 334.544379l224.13578-158.245094 97.547687 0 1.38658 2.924609c0.112564 0.23843 11.676947 24.326035 32.904411 48.024783 28.02017 31.283494 58.719356 47.145763 91.24412 47.145763 0.355087 0 0.704035-0.002047 1.060145-0.005117 36.70804-0.394996 68.729338-16.412808 95.17464-47.608298 19.87977-23.451108 28.860305-46.933939 28.948309-47.168276l1.248434-3.311419 97.838306 0 222.088144 158.246117L881.391025 494.799246 755.999177 407.751704 756.010433 847.588151zM310.881446 837.355089l434.895925 0-0.01228-449.166953 132.309398 91.849918 81.987293-142.546553L748.20056 186.532347l-87.599104 0c-3.28686 7.611352-12.605086 27.101241-29.357632 46.864354-28.049846 33.088606-63.622016 50.802036-102.869902 51.223638-0.39295 0.004093-0.778736 0.00614-1.170662 0.00614-35.132148 0-69.38323-17.550725-99.048877-50.754964-17.971303-20.11513-29.071106-40.005133-32.877805-47.339168l-87.907119 0L93.551676 337.492524l82.969667 142.228305 134.335545-89.989547L310.881446 837.355089z" p-id="94229"></path><path d="M113.577778 377.266389 107.708094 368.883465 292.121174 239.755526 297.990858 248.13845Z" p-id="94230"></path><path d="M940.129824 376.23899 945.998485 367.857089 761.585405 238.72915 755.715721 247.111051Z" p-id="94231"></path></svg>