<?xml version="1.0" standalone="no"?><!DOCTYPE svg PUBLIC "-//W3C//DTD SVG 1.1//EN" "http://www.w3.org/Graphics/SVG/1.1/DTD/svg11.dtd"><svg t="1574646717126" class="icon" viewBox="0 0 1024 1024" version="1.1" xmlns="http://www.w3.org/2000/svg" p-id="11889" xmlns:xlink="http://www.w3.org/1999/xlink" width="200" height="200"><defs><style type="text/css"></style></defs><path d="M561.548387 578.064516h-33.032258c-9.909677 0-16.516129 6.606452-16.516129 16.516129s6.606452 16.516129 16.516129 16.516129h33.032258c9.909677 0 16.516129-6.606452 16.516129-16.516129s-6.606452-16.516129-16.516129-16.516129z m0-66.064516h-33.032258c-9.909677 0-16.516129 6.606452-16.516129 16.516129s6.606452 16.516129 16.516129 16.516129h33.032258c9.909677 0 16.516129-6.606452 16.516129-16.516129s-6.606452-16.516129-16.516129-16.516129z m0 132.129032h-33.032258c-9.909677 0-16.516129 6.606452-16.516129 16.516129s6.606452 16.516129 16.516129 16.516129h33.032258c9.909677 0 16.516129-6.606452 16.516129-16.516129s-6.606452-16.516129-16.516129-16.516129z m0 66.064516h-33.032258c-9.909677 0-16.516129 6.606452-16.516129 16.516129s6.606452 16.516129 16.516129 16.516129h33.032258c9.909677 0 16.516129-6.606452 16.516129-16.516129s-6.606452-16.516129-16.516129-16.516129z m0 132.129033h-33.032258c-9.909677 0-16.516129 6.606452-16.516129 16.516129s6.606452 16.516129 16.516129 16.516129h33.032258c9.909677 0 16.516129-6.606452 16.516129-16.516129s-6.606452-16.516129-16.516129-16.516129z m0-396.387097h-33.032258c-9.909677 0-16.516129 6.606452-16.516129 16.516129s6.606452 16.516129 16.516129 16.516129h33.032258c9.909677 0 16.516129-6.606452 16.516129-16.516129s-6.606452-16.516129-16.516129-16.516129z m0 330.322581h-33.032258c-9.909677 0-16.516129 6.606452-16.516129 16.516129s6.606452 16.516129 16.516129 16.516129h33.032258c9.909677 0 16.516129-6.606452 16.516129-16.516129s-6.606452-16.516129-16.516129-16.516129z m99.096774-363.354839h-33.032258c-9.909677 0-16.516129 6.606452-16.516129 16.516129s6.606452 16.516129 16.516129 16.516129h33.032258c9.909677 0 16.516129-6.606452 16.516129-16.516129s-6.606452-16.516129-16.516129-16.516129z m-99.096774-33.032258h-33.032258c-9.909677 0-16.516129 6.606452-16.516129 16.516129s6.606452 16.516129 16.516129 16.516129h33.032258c9.909677 0 16.516129-6.606452 16.516129-16.516129s-6.606452-16.516129-16.516129-16.516129z m99.096774 99.096774h-33.032258c-9.909677 0-16.516129 6.606452-16.516129 16.516129s6.606452 16.516129 16.516129 16.516129h33.032258c9.909677 0 16.516129-6.606452 16.516129-16.516129s-6.606452-16.516129-16.516129-16.516129z m198.193549-462.451613h-201.496775c-3.303226 0-9.909677-3.303226-13.212903 0H429.419355c-3.303226 0-6.606452 0-6.606452 3.303226h-6.606451l-264.258065 264.258064v6.606452c-3.303226 0-3.303226 3.303226-3.303226 6.606452v693.677419c0 9.909677 6.606452 16.516129 16.516129 16.516129h693.67742c9.909677 0 16.516129-6.606452 16.516129-16.516129V33.032258c0-9.909677-6.606452-16.516129-16.516129-16.516129z m-317.109678 33.032258H644.129032l33.032258 66.064516-26.425806 42.941936-19.819355-62.761291c-3.303226-9.909677-9.909677-13.212903-16.516129-13.212903h-33.032258c-6.606452 0-13.212903 3.303226-16.516129 13.212903l-19.819355 66.064517-26.425806-46.245162 23.12258-66.064516z m89.187097 254.348387c-13.212903 13.212903-62.76129 13.212903-75.974194 0-9.909677-9.909677-13.212903-26.425806-6.606451-39.638709l42.941935-148.645162h6.606452L640.825806 264.258065c3.303226 13.212903 0 29.729032-9.909677 39.638709zM412.903226 72.670968v208.103226H204.8L412.903226 72.670968z m429.419355 901.780645H181.677419v-660.645161h247.741936c9.909677 0 16.516129-6.606452 16.516129-16.516129V49.548387h56.154839L478.967742 109.006452c0 6.606452 0 9.909677 3.303226 16.516129l46.245161 79.277419-13.212903 49.548387c-9.909677 23.122581-3.303226 52.851613 16.516129 72.670968 13.212903 13.212903 36.335484 19.819355 62.76129 19.819355s49.548387-6.606452 62.76129-19.819355c19.819355-19.819355 26.425806-49.548387 16.51613-72.670968l-13.212904-49.548387L710.193548 122.219355c3.303226-6.606452 3.303226-9.909677 0-16.516129l-29.729032-56.154839H842.322581v924.903226z m-181.67742-429.419355h-33.032258c-9.909677 0-16.516129 6.606452-16.516129 16.516129s6.606452 16.516129 16.516129 16.516129h33.032258c9.909677 0 16.516129-6.606452 16.516129-16.516129s-6.606452-16.516129-16.516129-16.516129z m0 198.193548h-33.032258c-9.909677 0-16.516129 6.606452-16.516129 16.516129s6.606452 16.516129 16.516129 16.51613h33.032258c9.909677 0 16.516129-6.606452 16.516129-16.51613s-6.606452-16.516129-16.516129-16.516129z m0-132.129032h-33.032258c-9.909677 0-16.516129 6.606452-16.516129 16.516129s6.606452 16.516129 16.516129 16.516129h33.032258c9.909677 0 16.516129-6.606452 16.516129-16.516129s-6.606452-16.516129-16.516129-16.516129z m0 198.193549h-33.032258c-9.909677 0-16.516129 6.606452-16.516129 16.516129s6.606452 16.516129 16.516129 16.516129h33.032258c9.909677 0 16.516129-6.606452 16.516129-16.516129s-6.606452-16.516129-16.516129-16.516129z m0-132.129033h-33.032258c-9.909677 0-16.516129 6.606452-16.516129 16.516129s6.606452 16.516129 16.516129 16.516129h33.032258c9.909677 0 16.516129-6.606452 16.516129-16.516129s-6.606452-16.516129-16.516129-16.516129z" fill="" p-id="11890"></path></svg>