<?xml version="1.0" standalone="no"?><!DOCTYPE svg PUBLIC "-//W3C//DTD SVG 1.1//EN" "http://www.w3.org/Graphics/SVG/1.1/DTD/svg11.dtd"><svg t="1574493618625" class="icon" viewBox="0 0 1024 1024" version="1.1" xmlns="http://www.w3.org/2000/svg" p-id="82408" xmlns:xlink="http://www.w3.org/1999/xlink" width="200" height="200"><defs><style type="text/css"></style></defs><path d="M732.928 660.6848h-186.368a25.6 25.6 0 1 1 0-51.2h186.368l-19.2256-20.0192a25.6 25.6 0 0 1 36.9152-35.456l60.8256 63.36a25.6 25.6 0 0 1 0 35.456l-60.8256 63.36a25.6 25.6 0 1 1-36.9152-35.456l19.2-20.0448zM548.864 179.2h-261.12C270.464 179.2 256 194.2528 256 213.3248v597.3504c0 19.072 14.464 34.1248 31.744 34.1248h401.408c17.28 0 31.744-15.0528 31.744-34.1248V780.8a25.6 25.6 0 0 1 51.2 0v29.8752c0 46.8992-36.8896 85.3248-82.944 85.3248H287.744C241.6896 896 204.8 857.5744 204.8 810.6752V213.3248C204.8 166.4256 241.6896 128 287.744 128h289.408a25.6 25.6 0 0 1 18.6112 8.0128l169.344 179.2a25.6 25.6 0 0 1 6.9888 17.5872v149.504a25.6 25.6 0 1 1-51.2 0V358.4h-89.088c-46.0544 0-82.944-38.4256-82.944-85.3248V179.2z m138.24 128l-87.04-92.0832v57.9584c0 19.072 14.464 34.1248 31.744 34.1248h55.296z" p-id="82409"></path></svg>